# xmcd
#
# Track frame offsets:
#	150
#	14211
#	27056
#	43389
#	59984
#	74530
#	87125
#	101879
#	114711
#	128140
#
# Disc length: 1938 seconds
#
# Revision: 1
# Processed by: cddbd v1.5.2PL0 Copyright (c) Steve Scherf et al.
# Submitted via: audiograbber 1.83.01
#
DISCID=9a07900a
DTITLE=Kottak - Attack
DYEAR=2011
DGENRE=Hard Rock
TTITLE0=Teenage Kix
TTITLE1=Scandalous
TTITLE2=Hit the heartbrakes
TTITLE3=Let's do it tonite!
TTITLE4=Sexy motherfucker
TTITLE5=Perfect defects
TTITLE6=Bang bang baby
TTITLE7=World war love
TTITLE8=So disconnected
TTITLE9=Time to say goodbye
EXTD=
EXTT0=
EXTT1=
EXTT2=
EXTT3=
EXTT4=
EXTT5=
EXTT6=
EXTT7=
EXTT8=
EXTT9=
PLAYORDER=
